<?xml version="1.0" standalone="no"?>
<!DOCTYPE svg PUBLIC "-//W3C//DTD SVG 20010904//EN"
 "http://www.w3.org/TR/2001/REC-SVG-20010904/DTD/svg10.dtd">
<svg version="1.0" xmlns="http://www.w3.org/2000/svg"
 width="260.000000pt" height="75.000000pt" viewBox="0 0 260.000000 75.000000"
 preserveAspectRatio="xMidYMid meet">

<g transform="translate(0.000000,75.000000) scale(0.100000,-0.100000)"
fill="#000000" stroke="none">
<path d="M580 685 c0 -13 -24 -15 -160 -15 l-160 0 0 -280 0 -280 65 0 65 0 0
115 0 115 90 0 90 0 0 55 0 55 -90 0 -90 0 0 55 0 55 95 0 95 0 0 -225 0 -225
60 0 60 0 0 58 0 57 19 -31 c77 -127 310 -123 377 7 16 31 21 111 9 148 -5 15
-2 21 9 21 13 0 16 -15 16 -92 0 -75 4 -99 20 -126 30 -49 90 -65 158 -41 28
10 30 13 21 37 -10 25 -9 25 8 10 84 -76 238 -76 314 1 85 85 72 209 -30 276
-72 48 -196 43 -259 -10 -38 -32 -42 -31 -42 5 0 28 -3 30 -35 30 l-35 0 0 65
0 65 -60 0 -60 0 0 -65 c0 -63 -1 -65 -25 -65 -21 0 -25 -5 -25 -32 0 -29 -1
-30 -18 -15 -33 30 -106 57 -158 57 -66 0 -146 -39 -179 -88 l-25 -37 0 178 0
177 -60 0 c-47 0 -60 -3 -60 -15z m374 -337 c15 -13 29 -37 32 -55 5 -27 1
-37 -25 -64 -27 -26 -37 -30 -63 -25 -60 12 -90 63 -66 114 13 27 50 52 80 52
9 0 28 -10 42 -22z m344 -9 c-6 -17 -8 -53 -6 -80 5 -46 4 -50 -16 -47 -19 3
-21 10 -24 81 l-3 77 30 0 c29 0 30 -1 19 -31z m253 2 c44 -44 33 -108 -21
-131 -55 -23 -110 14 -110 73 0 80 75 113 131 58z"/>
<path d="M2297 660 c-20 -16 -27 -30 -27 -55 0 -67 79 -95 123 -43 53 62 -31
149 -96 98z"/>
<path d="M1955 456 c-65 -29 -105 -94 -105 -172 0 -59 19 -103 63 -141 58 -51
145 -56 201 -12 l26 20 0 -20 c0 -19 6 -21 60 -21 l60 0 0 175 0 175 -60 0
c-47 0 -60 -3 -60 -15 0 -12 -6 -12 -37 5 -43 23 -104 25 -148 6z m156 -115
c44 -44 33 -108 -21 -131 -55 -23 -110 14 -110 73 0 80 75 113 131 58z"/>
<path d="M2280 285 l0 -175 60 0 60 0 0 175 0 175 -60 0 -60 0 0 -175z"/>
<path d="M1754 250 c-28 -11 -54 -48 -54 -78 0 -30 43 -72 74 -72 38 0 55 10
71 41 20 38 19 54 -7 83 -27 29 -55 38 -84 26z"/>
</g>
</svg>
